# xmcd CD database file
#
# Track frame offsets:
#	150
#	39687
#	85700
#	128382
#	165420
#	202885
#
# Disc length: 3698 seconds
#
# Revision: 3
# Processed by: cddbd v1.4PL0 Copyright (c) Steve Scherf et al.
# Submitted via: CDex 1.50
#
DISCID=3b0e7006
DTITLE=Eraldo Bernocchi, Toshinori Kondo, Bill Laswell, Hamid Drake, DJ Disk and Aiyb Dieng - Charged Live
DYEAR=2002
DGENRE=Jazz
TTITLE0=Shintotech Iridescence
TTITLE1=Fathoms
TTITLE2=Death Tools
TTITLE3=Dueling Sufis
TTITLE4=Subterrania
TTITLE5=Overloaded Lila
EXTD=YEAR: 2002
EXTT0=
EXTT1=
EXTT2=
EXTT3=
EXTT4=
EXTT5=
PLAYORDER=
